# xmcd
#
# Track frame offsets: 
#        150
#        11820
#        23297
#        33172
#        47820
#        62014
#        72965
#        84195
#        95582
#        110095
#        122200
#        138837
#        160515
#        175087
#
# Disc length: 2516 seconds
#
# Revision: 1
# Processed by: cddbd v1.5.1PL0 Copyright (c) Steve Scherf et al.
# Submitted via: ExactAudioCopy v0.95a5
#
DISCID=a909d20e
DTITLE=Various Artist - Baião de Tr3s
DYEAR=2001
DGENRE=Baião
TTITLE0=Elba Ramalho - Eu Quero Meu Amor
TTITLE1=Dominguinhos - Isso Aqui Tá Bom Demais
TTITLE2=Geraldo Azevedo - Moça Bonita
TTITLE3=Elba Ramalho - Bate Coração
TTITLE4=Dominguinhos - Eu Só Quero Um Xodó
TTITLE5=Geraldo Azevedo - Sabor Colorido
TTITLE6=Elba Ramalho - Forró Do Poeirão
TTITLE7=Dominguinhos - Chega Morena
TTITLE8=Geraldo Azevedo - Menina Do Lido
TTITLE9=Elba Ramalho - Do Jeito Que A Gente Gosta
TTITLE10=Dominguinhos - Lamento Sertanejo (Forró do Dominguinhos)
TTITLE11=Geraldo Azevedo - For All Para Todos
TTITLE12=Elba Ramalho - Toque De Fole
TTITLE13=Dominguinhos - Não Prende Minhas Asas
EXTD=JS LKTS
EXTT0=
EXTT1=
EXTT2=
EXTT3=
EXTT4=
EXTT5=
EXTT6=
EXTT7=
EXTT8=
EXTT9=
EXTT10=
EXTT11=
EXTT12=
EXTT13=
PLAYORDER=
